<svg width="35" height="50" viewBox="0 0 35 50" fill="none" xmlns="http://www.w3.org/2000/svg">
<g clip-path="url(#clip0)">
<ellipse cx="26" cy="24" rx="5" ry="6" fill="#70BA4D"/>
<ellipse cx="20" cy="24" rx="5" ry="6" fill="#70BA4D"/>
<path d="M1 25.4516C1 21.8885 3.88849 19 7.45161 19H13V29H4.54839C2.58867 29 1 27.4113 1 25.4516Z" fill="#70BA4D"/>
<path d="M13 19H14V29H13V19Z" fill="#1FC7D4"/>
<path d="M26 19H9V29H26V19Z" fill="#70BA4D"/>
<path d="M23 29C21.7948 29.1268 20.4914 27.6833 20.5 24C20.5086 20.3167 21.577 20.4406 23.1343 19" stroke="#558B2F" stroke-width="0.5" stroke-linecap="round"/>
<ellipse cx="14" cy="24" rx="5" ry="6" fill="#70BA4D"/>
<path d="M17 29C15.7948 29.1268 14.9914 27.6833 15 24C15.0086 20.3167 15.4427 20.4406 17 19" stroke="#558B2F" stroke-width="0.5" stroke-linecap="round"/>
<g filter="url(#filter0_d)">
<path d="M17 5.01709C18.3333 4.86606 21 5.65112 21 10" stroke="#452A7A" stroke-linecap="round"/>
<path d="M27.0171 9C26.8661 7.66672 27.6511 5 32 5" stroke="#452A7A" stroke-linecap="round"/>
<circle cx="24.5" cy="16.5" r="8.25" fill="#70BA4D" stroke="#558B2F" stroke-width="0.5"/>
<path d="M26.9932 19C27.0536 19.3333 26.7396 20 25 20" stroke="#452A7A" stroke-linecap="round"/>
<path d="M22.0103 19C21.9196 19.3333 22.3908 20 25 20" stroke="#452A7A" stroke-linecap="round"/>
<path d="M23 13C23 13.7364 22.5523 14 22 14C21.4477 14 21 13.7364 21 13C21 12.2636 21.4477 12 22 12C22.5523 12 23 12.2636 23 13Z" fill="#452A7A"/>
<path d="M28 13C28 13.7364 27.5523 14 27 14C26.4477 14 26 13.7364 26 13C26 12.2636 26.4477 12 27 12C27.5523 12 28 12.2636 28 13Z" fill="#452A7A"/>
</g>
<path d="M15.8003 46.9999V45.3079H11.9363V44.3839L15.9563 39.2719H17.0963V44.2519H17.8883V45.3079H17.0963V46.9999H15.8003ZM13.2083 44.2879H16.0043V40.7599L13.2083 44.2879ZM18.6919 46.9999V46.3519C18.8999 45.8639 19.1879 45.4239 19.5559 45.0319C19.9319 44.6399 20.3319 44.2599 20.7559 43.8919C21.0759 43.6119 21.3399 43.3759 21.5479 43.1839C21.7639 42.9839 21.9319 42.8039 22.0519 42.6439C22.1719 42.4839 22.2559 42.3199 22.3039 42.1519C22.3519 41.9759 22.3759 41.7719 22.3759 41.5399C22.3759 41.1239 22.2559 40.8079 22.0159 40.5919C21.7759 40.3759 21.3759 40.2679 20.8159 40.2679C20.5119 40.2679 20.1999 40.2999 19.8799 40.3639C19.5679 40.4279 19.2679 40.5159 18.9799 40.6279V39.4759C19.2599 39.3799 19.5919 39.3039 19.9759 39.2479C20.3599 39.1839 20.7239 39.1519 21.0679 39.1519C21.9319 39.1519 22.5839 39.3639 23.0239 39.7879C23.4639 40.2119 23.6839 40.7919 23.6839 41.5279C23.6839 41.8959 23.6199 42.2239 23.4919 42.5119C23.3639 42.7919 23.1879 43.0599 22.9639 43.3159C22.7399 43.5639 22.4799 43.8199 22.1839 44.0839C21.8159 44.4039 21.4679 44.7159 21.1399 45.0199C20.8199 45.3159 20.5599 45.6399 20.3599 45.9919H23.7679V46.9999H18.6919ZM26.5014 42.6799C25.9334 42.6799 25.5054 42.5239 25.2174 42.2119C24.9374 41.8919 24.7974 41.4879 24.7974 40.9999C24.7974 40.4319 24.9374 39.9839 25.2174 39.6559C25.5054 39.3199 25.9334 39.1519 26.5014 39.1519C27.0694 39.1519 27.4934 39.3199 27.7734 39.6559C28.0534 39.9839 28.1934 40.4319 28.1934 40.9999C28.1934 41.4879 28.0534 41.8919 27.7734 42.2119C27.4934 42.5239 27.0694 42.6799 26.5014 42.6799ZM25.9734 46.9999L30.0654 39.2719H31.2894L27.1974 46.9999H25.9734ZM26.5014 41.8879C26.8134 41.8879 27.0374 41.8079 27.1734 41.6479C27.3094 41.4879 27.3774 41.2639 27.3774 40.9759C27.3774 40.6239 27.3054 40.3679 27.1614 40.2079C27.0254 40.0399 26.8054 39.9559 26.5014 39.9559C26.1974 39.9559 25.9734 40.0399 25.8294 40.2079C25.6934 40.3679 25.6254 40.6239 25.6254 40.9759C25.6254 41.2639 25.6934 41.4879 25.8294 41.6479C25.9654 41.8079 26.1894 41.8879 26.5014 41.8879ZM30.7974 47.1199C30.2294 47.1199 29.8014 46.9639 29.5134 46.6519C29.2334 46.3319 29.0934 45.9279 29.0934 45.4399C29.0934 44.8719 29.2334 44.4239 29.5134 44.0959C29.8014 43.7599 30.2294 43.5919 30.7974 43.5919C31.3654 43.5919 31.7894 43.7599 32.0694 44.0959C32.3494 44.4239 32.4894 44.8719 32.4894 45.4399C32.4894 45.9279 32.3494 46.3319 32.0694 46.6519C31.7894 46.9639 31.3654 47.1199 30.7974 47.1199ZM30.7974 46.3279C31.1094 46.3279 31.3334 46.2479 31.4694 46.0879C31.6054 45.9279 31.6734 45.7039 31.6734 45.4159C31.6734 45.0639 31.6014 44.8079 31.4574 44.6479C31.3214 44.4799 31.1014 44.3959 30.7974 44.3959C30.4934 44.3959 30.2694 44.4799 30.1254 44.6479C29.9894 44.8079 29.9214 45.0639 29.9214 45.4159C29.9214 45.7039 29.9894 45.9279 30.1254 46.0879C30.2614 46.2479 30.4854 46.3279 30.7974 46.3279Z" fill="#8F80BA"/>
<ellipse cx="9" cy="24" rx="5" ry="6" fill="#70BA4D"/>
<path d="M6.50002 29C5.45215 29.118 4 28 4 24.5C4 21 4.64866 20.8655 6.00005 19.4997" stroke="#558B2F" stroke-width="0.5" stroke-linecap="round"/>
<path d="M11.4485 29C10.2433 29.1268 8.99135 27.6833 9 24C9.00865 20.3167 9.89121 20.4386 11.4485 18.998" stroke="#558B2F" stroke-width="0.5" stroke-linecap="round"/>
</g>
<defs>
<filter id="filter0_d" x="12" y="4.5" width="25" height="28.5" filterUnits="userSpaceOnUse" color-interpolation-filters="sRGB">
<feFlood flood-opacity="0" result="BackgroundImageFix"/>
<feColorMatrix in="SourceAlpha" type="matrix" values="0 0 0 0 0 0 0 0 0 0 0 0 0 0 0 0 0 0 127 0"/>
<feOffset dy="4"/>
<feGaussianBlur stdDeviation="2"/>
<feColorMatrix type="matrix" values="0 0 0 0 0 0 0 0 0 0 0 0 0 0 0 0 0 0 0.25 0"/>
<feBlend mode="normal" in2="BackgroundImageFix" result="effect1_dropShadow"/>
<feBlend mode="normal" in="SourceGraphic" in2="effect1_dropShadow" result="shape"/>
</filter>
<clipPath id="clip0">
<rect width="35" height="50" fill="white"/>
</clipPath>
</defs>
</svg>
