<svg width="24" height="32" viewBox="0 0 24 32" fill="none" xmlns="http://www.w3.org/2000/svg">
<g clip-path="url(#clip0)">
<ellipse cx="15" cy="23" rx="5" ry="6" fill="#70BA4D"/>
<ellipse cx="9" cy="23" rx="5" ry="6" fill="#70BA4D"/>
<path d="M-10 24.4516C-10 20.8885 -7.11151 18 -3.54839 18H2V28H-6.45161C-8.41133 28 -10 26.4113 -10 24.4516Z" fill="#70BA4D"/>
<path d="M2 18H3V28H2V18Z" fill="#1FC7D4"/>
<path d="M15 18H-2V28H15V18Z" fill="#70BA4D"/>
<path d="M12 28C10.7948 28.1268 9.49135 26.6833 9.5 23C9.50865 19.3167 10.577 19.4406 12.1343 18" stroke="#558B2F" stroke-width="0.5" stroke-linecap="round"/>
<ellipse cx="3" cy="23" rx="5" ry="6" fill="#70BA4D"/>
<path d="M6 28C4.79481 28.1268 3.99135 26.6833 4 23C4.00865 19.3167 4.44273 19.4406 6 18" stroke="#558B2F" stroke-width="0.5" stroke-linecap="round"/>
<g filter="url(#filter0_d)">
<path d="M6 4.01709C7.33328 3.86606 10 4.65112 10 9" stroke="#452A7A" stroke-linecap="round"/>
<path d="M16.0171 8C15.8661 6.66672 16.6511 4 21 4" stroke="#452A7A" stroke-linecap="round"/>
<circle cx="13.5" cy="15.5" r="8.25" fill="#70BA4D" stroke="#558B2F" stroke-width="0.5"/>
<path d="M17 17.5C17 19.341 15.433 20 13.5 20C11.567 20 10 19.341 10 17.5C10 15.659 11.567 15 13.5 15C15.433 15 17 15.659 17 17.5Z" fill="#452A7A"/>
<path d="M12 12C12 12.7364 11.5523 13 11 13C10.4477 13 10 12.7364 10 12C10 11.2636 10.4477 11 11 11C11.5523 11 12 11.2636 12 12Z" fill="#452A7A"/>
<path d="M17 12C17 12.7364 16.5523 13 16 13C15.4477 13 15 12.7364 15 12C15 11.2636 15.4477 11 16 11C16.5523 11 17 11.2636 17 12Z" fill="#452A7A"/>
</g>
<ellipse cx="-2" cy="23" rx="5" ry="6" fill="#70BA4D"/>
<path d="M0.448497 28C-0.75669 28.1268 -2.00865 26.6833 -2 23C-1.99135 19.3167 -1.10879 19.4386 0.448486 17.998" stroke="#558B2F" stroke-width="0.5" stroke-linecap="round"/>
</g>
<defs>
<filter id="filter0_d" x="1" y="3.5" width="25" height="28.5" filterUnits="userSpaceOnUse" color-interpolation-filters="sRGB">
<feFlood flood-opacity="0" result="BackgroundImageFix"/>
<feColorMatrix in="SourceAlpha" type="matrix" values="0 0 0 0 0 0 0 0 0 0 0 0 0 0 0 0 0 0 127 0"/>
<feOffset dy="4"/>
<feGaussianBlur stdDeviation="2"/>
<feColorMatrix type="matrix" values="0 0 0 0 0 0 0 0 0 0 0 0 0 0 0 0 0 0 0.25 0"/>
<feBlend mode="normal" in2="BackgroundImageFix" result="effect1_dropShadow"/>
<feBlend mode="normal" in="SourceGraphic" in2="effect1_dropShadow" result="shape"/>
</filter>
<clipPath id="clip0">
<rect width="35" height="50" fill="white" transform="translate(-11)"/>
</clipPath>
</defs>
</svg>
