<svg width="35" height="50" viewBox="0 0 35 50" fill="none" xmlns="http://www.w3.org/2000/svg">
<g clip-path="url(#clip0)">
<ellipse cx="26" cy="25" rx="5" ry="6" fill="#70BA4D"/>
<ellipse cx="20" cy="25" rx="5" ry="6" fill="#70BA4D"/>
<path d="M1 26.4516C1 22.8885 3.88849 20 7.45161 20H13V30H4.54839C2.58867 30 1 28.4113 1 26.4516Z" fill="#70BA4D"/>
<path d="M13 20H14V30H13V20Z" fill="#1FC7D4"/>
<path d="M26 20H9V30H26V20Z" fill="#70BA4D"/>
<path d="M23 30C21.7948 30.1268 20.4914 28.6833 20.5 25C20.5086 21.3167 21.577 21.4406 23.1343 20" stroke="#558B2F" stroke-width="0.5" stroke-linecap="round"/>
<ellipse cx="14" cy="25" rx="5" ry="6" fill="#70BA4D"/>
<path d="M17 30C15.7948 30.1268 14.9914 28.6833 15 25C15.0086 21.3167 15.4427 21.4406 17 20" stroke="#558B2F" stroke-width="0.5" stroke-linecap="round"/>
<g filter="url(#filter0_d)">
<path d="M17 6.01709C18.3333 5.86606 21 6.65112 21 11" stroke="#452A7A" stroke-linecap="round"/>
<path d="M27.0171 10C26.8661 8.66672 27.6511 6 32 6" stroke="#452A7A" stroke-linecap="round"/>
<circle cx="24.5" cy="17.5" r="8.25" fill="#70BA4D" stroke="#558B2F" stroke-width="0.5"/>
<path d="M26.9932 20C27.0536 20.3333 26.7396 21 25 21" stroke="#452A7A" stroke-linecap="round"/>
<path d="M22.0103 20C21.9196 20.3333 22.3908 21 25 21" stroke="#452A7A" stroke-linecap="round"/>
<path d="M23 14C23 14.7364 22.5523 15 22 15C21.4477 15 21 14.7364 21 14C21 13.2636 21.4477 13 22 13C22.5523 13 23 13.2636 23 14Z" fill="#452A7A"/>
<path d="M28 14C28 14.7364 27.5523 15 27 15C26.4477 15 26 14.7364 26 14C26 13.2636 26.4477 13 27 13C27.5523 13 28 13.2636 28 14Z" fill="#452A7A"/>
</g>
<path d="M15.8003 47.9999V46.3079H11.9363V45.3839L15.9563 40.2719H17.0963V45.2519H17.8883V46.3079H17.0963V47.9999H15.8003ZM13.2083 45.2879H16.0043V41.7599L13.2083 45.2879ZM18.6919 47.9999V47.3519C18.8999 46.8639 19.1879 46.4239 19.5559 46.0319C19.9319 45.6399 20.3319 45.2599 20.7559 44.8919C21.0759 44.6119 21.3399 44.3759 21.5479 44.1839C21.7639 43.9839 21.9319 43.8039 22.0519 43.6439C22.1719 43.4839 22.2559 43.3199 22.3039 43.1519C22.3519 42.9759 22.3759 42.7719 22.3759 42.5399C22.3759 42.1239 22.2559 41.8079 22.0159 41.5919C21.7759 41.3759 21.3759 41.2679 20.8159 41.2679C20.5119 41.2679 20.1999 41.2999 19.8799 41.3639C19.5679 41.4279 19.2679 41.5159 18.9799 41.6279V40.4759C19.2599 40.3799 19.5919 40.3039 19.9759 40.2479C20.3599 40.1839 20.7239 40.1519 21.0679 40.1519C21.9319 40.1519 22.5839 40.3639 23.0239 40.7879C23.4639 41.2119 23.6839 41.7919 23.6839 42.5279C23.6839 42.8959 23.6199 43.2239 23.4919 43.5119C23.3639 43.7919 23.1879 44.0599 22.9639 44.3159C22.7399 44.5639 22.4799 44.8199 22.1839 45.0839C21.8159 45.4039 21.4679 45.7159 21.1399 46.0199C20.8199 46.3159 20.5599 46.6399 20.3599 46.9919H23.7679V47.9999H18.6919ZM26.5014 43.6799C25.9334 43.6799 25.5054 43.5239 25.2174 43.2119C24.9374 42.8919 24.7974 42.4879 24.7974 41.9999C24.7974 41.4319 24.9374 40.9839 25.2174 40.6559C25.5054 40.3199 25.9334 40.1519 26.5014 40.1519C27.0694 40.1519 27.4934 40.3199 27.7734 40.6559C28.0534 40.9839 28.1934 41.4319 28.1934 41.9999C28.1934 42.4879 28.0534 42.8919 27.7734 43.2119C27.4934 43.5239 27.0694 43.6799 26.5014 43.6799ZM25.9734 47.9999L30.0654 40.2719H31.2894L27.1974 47.9999H25.9734ZM26.5014 42.8879C26.8134 42.8879 27.0374 42.8079 27.1734 42.6479C27.3094 42.4879 27.3774 42.2639 27.3774 41.9759C27.3774 41.6239 27.3054 41.3679 27.1614 41.2079C27.0254 41.0399 26.8054 40.9559 26.5014 40.9559C26.1974 40.9559 25.9734 41.0399 25.8294 41.2079C25.6934 41.3679 25.6254 41.6239 25.6254 41.9759C25.6254 42.2639 25.6934 42.4879 25.8294 42.6479C25.9654 42.8079 26.1894 42.8879 26.5014 42.8879ZM30.7974 48.1199C30.2294 48.1199 29.8014 47.9639 29.5134 47.6519C29.2334 47.3319 29.0934 46.9279 29.0934 46.4399C29.0934 45.8719 29.2334 45.4239 29.5134 45.0959C29.8014 44.7599 30.2294 44.5919 30.7974 44.5919C31.3654 44.5919 31.7894 44.7599 32.0694 45.0959C32.3494 45.4239 32.4894 45.8719 32.4894 46.4399C32.4894 46.9279 32.3494 47.3319 32.0694 47.6519C31.7894 47.9639 31.3654 48.1199 30.7974 48.1199ZM30.7974 47.3279C31.1094 47.3279 31.3334 47.2479 31.4694 47.0879C31.6054 46.9279 31.6734 46.7039 31.6734 46.4159C31.6734 46.0639 31.6014 45.8079 31.4574 45.6479C31.3214 45.4799 31.1014 45.3959 30.7974 45.3959C30.4934 45.3959 30.2694 45.4799 30.1254 45.6479C29.9894 45.8079 29.9214 46.0639 29.9214 46.4159C29.9214 46.7039 29.9894 46.9279 30.1254 47.0879C30.2614 47.2479 30.4854 47.3279 30.7974 47.3279Z" fill="#8F80BA"/>
<ellipse cx="9" cy="25" rx="5" ry="6" fill="#70BA4D"/>
<path d="M6.50002 30C5.45215 30.118 4 29 4 25.5C4 22 4.64866 21.8655 6.00005 20.4997" stroke="#558B2F" stroke-width="0.5" stroke-linecap="round"/>
<path d="M11.4485 30C10.2433 30.1268 8.99135 28.6833 9 25C9.00865 21.3167 9.89121 21.4386 11.4485 19.998" stroke="#558B2F" stroke-width="0.5" stroke-linecap="round"/>
</g>
<defs>
<filter id="filter0_d" x="12" y="5.5" width="25" height="28.5" filterUnits="userSpaceOnUse" color-interpolation-filters="sRGB">
<feFlood flood-opacity="0" result="BackgroundImageFix"/>
<feColorMatrix in="SourceAlpha" type="matrix" values="0 0 0 0 0 0 0 0 0 0 0 0 0 0 0 0 0 0 127 0"/>
<feOffset dy="4"/>
<feGaussianBlur stdDeviation="2"/>
<feColorMatrix type="matrix" values="0 0 0 0 0 0 0 0 0 0 0 0 0 0 0 0 0 0 0.25 0"/>
<feBlend mode="normal" in2="BackgroundImageFix" result="effect1_dropShadow"/>
<feBlend mode="normal" in="SourceGraphic" in2="effect1_dropShadow" result="shape"/>
</filter>
<clipPath id="clip0">
<rect width="35" height="50" fill="white"/>
</clipPath>
</defs>
</svg>
