<svg width="15" height="32" viewBox="0 0 15 32" fill="none" xmlns="http://www.w3.org/2000/svg">
<g clip-path="url(#clip0)">
<path d="M1 26.4516C1 22.8885 3.88849 20 7.45161 20H13V30H4.54839C2.58867 30 1 28.4113 1 26.4516Z" fill="#70BA4D"/>
<path d="M13 20H14V30H13V20Z" fill="#1FC7D4"/>
<path d="M26 20H9V30H26V20Z" fill="#70BA4D"/>
<ellipse cx="14" cy="25" rx="5" ry="6" fill="#70BA4D"/>
<path d="M17 30C15.7948 30.1268 14.9914 28.6833 15 25C15.0086 21.3167 15.4427 21.4406 17 20" stroke="#558B2F" stroke-width="0.5" stroke-linecap="round"/>
<g filter="url(#filter0_d)">
</g>
<ellipse cx="9" cy="25" rx="5" ry="6" fill="#70BA4D"/>
<path d="M6.50002 30C5.45215 30.118 4 29 4 25.5C4 22 4.64866 21.8655 6.00005 20.4997" stroke="#558B2F" stroke-width="0.5" stroke-linecap="round"/>
<path d="M11.4485 30C10.2433 30.1268 8.99135 28.6833 9 25C9.00865 21.3167 9.89121 21.4386 11.4485 19.998" stroke="#558B2F" stroke-width="0.5" stroke-linecap="round"/>
</g>
<defs>
<filter id="filter0_d" x="12" y="5.5" width="25" height="28.5" filterUnits="userSpaceOnUse" color-interpolation-filters="sRGB">
<feFlood flood-opacity="0" result="BackgroundImageFix"/>
<feColorMatrix in="SourceAlpha" type="matrix" values="0 0 0 0 0 0 0 0 0 0 0 0 0 0 0 0 0 0 127 0"/>
<feOffset dy="4"/>
<feGaussianBlur stdDeviation="2"/>
<feColorMatrix type="matrix" values="0 0 0 0 0 0 0 0 0 0 0 0 0 0 0 0 0 0 0.25 0"/>
<feBlend mode="normal" in2="BackgroundImageFix" result="effect1_dropShadow"/>
<feBlend mode="normal" in="SourceGraphic" in2="effect1_dropShadow" result="shape"/>
</filter>
<clipPath id="clip0">
<rect width="35" height="50" fill="white"/>
</clipPath>
</defs>
</svg>
