<svg width="24" height="32" viewBox="0 0 24 32" fill="none" xmlns="http://www.w3.org/2000/svg">
<path d="M23.8984 20.3326C23.517 17.1723 21.9219 14.0622 19.4338 11.564C16.9356 9.0658 13.8255 7.48062 10.6652 7.09943C7.46475 6.71824 4.59547 7.60112 2.58887 9.59762C0.582267 11.5941 -0.300616 14.4634 0.0906742 17.674C0.47186 20.8343 2.06715 23.9444 4.55524 26.4426C7.05343 28.9406 10.1635 30.5258 13.3238 30.9071C13.8154 30.9672 14.307 30.9973 14.7786 30.9973C17.3872 30.9973 19.7046 30.1045 21.3901 28.4089C23.4068 26.4023 24.2895 23.5331 23.8984 20.3326V20.3326Z" fill="#8BC34A"/>
<path d="M9.40081 10.01C8.80892 9.42802 7.91611 9.24744 6.88259 9.49838C5.92954 9.73903 4.95645 10.3109 4.13364 11.1337C2.34785 12.9296 1.85626 15.2371 3.01011 16.4009C3.43134 16.8221 4.01332 17.0229 4.65536 17.0229C5.77908 17.0229 7.13353 16.4108 8.26717 15.2671C9.0898 14.4545 9.67178 13.4813 9.91261 12.5282C10.1634 11.4949 9.98279 10.6019 9.40081 10.01V10.01Z" fill="#558B2F"/>
<path d="M14.7897 30.9886C14.3181 30.9886 13.8265 30.9584 13.3349 30.8982C10.1747 30.517 7.06437 28.9318 4.56636 26.4336C2.06816 23.9354 0.48298 20.8253 0.101793 17.6651C-0.289497 14.4646 0.603306 11.5953 2.5998 9.58869C4.59649 7.58227 7.47587 6.69938 10.6762 7.09067C13.8364 7.47186 16.9467 9.05705 19.4448 11.5551C21.9429 14.0532 23.5281 17.1634 23.9093 20.3238C24.3006 23.5241 23.4078 26.3936 21.4111 28.4C19.7056 30.0956 17.3981 30.9886 14.7897 30.9886ZM9.22142 8.01361C6.87387 8.01361 4.80701 8.80611 3.31221 10.311C1.53634 12.0869 0.74384 14.6654 1.0949 17.5547C1.45624 20.4943 2.94094 23.3937 5.27858 25.7313C7.61622 28.069 10.5156 29.5538 13.4553 29.915C16.3447 30.2762 18.9131 29.4837 20.6989 27.6977C22.4847 25.9119 23.2673 23.3435 22.916 20.4542C22.5549 17.5146 21.0702 14.6152 18.7325 12.2776C16.3949 9.93993 13.4955 8.45505 10.5559 8.09388C10.0944 8.03363 9.65295 8.01361 9.22142 8.01361V8.01361Z" fill="black"/>
<path d="M21.5406 22.0293C21.2699 22.0293 21.049 21.8186 21.0391 21.5476C20.9186 18.8789 19.5844 16.0697 17.3571 13.8526C17.1563 13.652 17.1563 13.341 17.3571 13.1402C17.5577 12.9396 17.8688 12.9396 18.0694 13.1402C20.4672 15.5381 21.9119 18.578 22.0423 21.4975C22.0524 21.7783 21.8417 22.0093 21.5608 22.0192C21.5507 22.0293 21.5507 22.0293 21.5406 22.0293V22.0293Z" fill="black"/>
<path d="M4.66586 17.0229C4.01371 17.0229 3.44184 16.8221 3.02042 16.4009C1.85666 15.2371 2.34825 12.9296 4.13404 11.1337C4.95685 10.3109 5.92993 9.72911 6.87307 9.49838C7.90641 9.24744 8.80931 9.42802 9.39129 10.01C9.97308 10.592 10.1638 11.4949 9.9029 12.5282C9.67217 13.4813 9.0902 14.4545 8.27767 15.2772C7.13393 16.4108 5.7894 17.0229 4.66586 17.0229H4.66586ZM7.75595 10.3912C7.51512 10.3912 7.28438 10.4314 7.11372 10.4715C6.35135 10.6621 5.53864 11.1537 4.84644 11.8459C3.5021 13.1903 2.9903 14.9561 3.72273 15.6885C4.45515 16.4209 6.22092 15.9093 7.56527 14.5648C8.25746 13.8726 8.74906 13.0599 8.93974 12.2874C9.04005 11.8961 9.13043 11.1638 8.68899 10.7224C8.43805 10.4715 8.08699 10.3912 7.75595 10.3912V10.3912Z" fill="black"/>
</svg>
