<svg width="15" height="32" viewBox="0 0 15 32" fill="none" xmlns="http://www.w3.org/2000/svg">
<g clip-path="url(#clip0)">
<path d="M1 25.4516C1 21.8885 3.88849 19 7.45161 19H13V29H4.54839C2.58867 29 1 27.4113 1 25.4516Z" fill="#70BA4D"/>
<path d="M13 19H14V29H13V19Z" fill="#1FC7D4"/>
<path d="M26 19H9V29H26V19Z" fill="#70BA4D"/>
<ellipse cx="14" cy="24" rx="5" ry="6" fill="#70BA4D"/>
<path d="M17 29C15.7948 29.1268 14.9914 27.6833 15 24C15.0086 20.3167 15.4427 20.4406 17 19" stroke="#558B2F" stroke-width="0.5" stroke-linecap="round"/>
<g filter="url(#filter0_d)">
</g>
<ellipse cx="9" cy="24" rx="5" ry="6" fill="#70BA4D"/>
<path d="M6.50002 29C5.45215 29.118 4 28 4 24.5C4 21 4.64866 20.8655 6.00005 19.4997" stroke="#558B2F" stroke-width="0.5" stroke-linecap="round"/>
<path d="M11.4485 29C10.2433 29.1268 8.99135 27.6833 9 24C9.00865 20.3167 9.89121 20.4386 11.4485 18.998" stroke="#558B2F" stroke-width="0.5" stroke-linecap="round"/>
</g>
<defs>
<filter id="filter0_d" x="12" y="4.5" width="25" height="28.5" filterUnits="userSpaceOnUse" color-interpolation-filters="sRGB">
<feFlood flood-opacity="0" result="BackgroundImageFix"/>
<feColorMatrix in="SourceAlpha" type="matrix" values="0 0 0 0 0 0 0 0 0 0 0 0 0 0 0 0 0 0 127 0"/>
<feOffset dy="4"/>
<feGaussianBlur stdDeviation="2"/>
<feColorMatrix type="matrix" values="0 0 0 0 0 0 0 0 0 0 0 0 0 0 0 0 0 0 0.25 0"/>
<feBlend mode="normal" in2="BackgroundImageFix" result="effect1_dropShadow"/>
<feBlend mode="normal" in="SourceGraphic" in2="effect1_dropShadow" result="shape"/>
</filter>
<clipPath id="clip0">
<rect width="35" height="50" fill="white"/>
</clipPath>
</defs>
</svg>
