<svg width="24" height="32" viewBox="0 0 24 32" fill="none" xmlns="http://www.w3.org/2000/svg">
<g clip-path="url(#clip0)">
<ellipse cx="15" cy="25" rx="5" ry="6" fill="#70BA4D"/>
<ellipse cx="9" cy="25" rx="5" ry="6" fill="#70BA4D"/>
<path d="M-10 26.4516C-10 22.8885 -7.11151 20 -3.54839 20H2V30H-6.45161C-8.41133 30 -10 28.4113 -10 26.4516Z" fill="#70BA4D"/>
<path d="M2 20H3V30H2V20Z" fill="#1FC7D4"/>
<path d="M15 20H-2V30H15V20Z" fill="#70BA4D"/>
<path d="M12 30C10.7948 30.1268 9.49135 28.6833 9.5 25C9.50865 21.3167 10.577 21.4406 12.1343 20" stroke="#558B2F" stroke-width="0.5" stroke-linecap="round"/>
<ellipse cx="3" cy="25" rx="5" ry="6" fill="#70BA4D"/>
<path d="M6 30C4.79481 30.1268 3.99135 28.6833 4 25C4.00865 21.3167 4.44273 21.4406 6 20" stroke="#558B2F" stroke-width="0.5" stroke-linecap="round"/>
<g filter="url(#filter0_d)">
<path d="M6 6.01709C7.33328 5.86606 10 6.65112 10 11" stroke="#452A7A" stroke-linecap="round"/>
<path d="M16.0171 10C15.8661 8.66672 16.6511 6 21 6" stroke="#452A7A" stroke-linecap="round"/>
<circle cx="13.5" cy="17.5" r="8.25" fill="#70BA4D" stroke="#558B2F" stroke-width="0.5"/>
<path d="M15.9932 20C16.0536 20.3333 15.7396 21 14 21" stroke="#452A7A" stroke-linecap="round"/>
<path d="M11.0103 20C10.9196 20.3333 11.3908 21 14 21" stroke="#452A7A" stroke-linecap="round"/>
<path d="M12 14C12 14.7364 11.5523 15 11 15C10.4477 15 10 14.7364 10 14C10 13.2636 10.4477 13 11 13C11.5523 13 12 13.2636 12 14Z" fill="#452A7A"/>
<path d="M17 14C17 14.7364 16.5523 15 16 15C15.4477 15 15 14.7364 15 14C15 13.2636 15.4477 13 16 13C16.5523 13 17 13.2636 17 14Z" fill="#452A7A"/>
</g>
<ellipse cx="-2" cy="25" rx="5" ry="6" fill="#70BA4D"/>
<path d="M0.448497 30C-0.75669 30.1268 -2.00865 28.6833 -2 25C-1.99135 21.3167 -1.10879 21.4386 0.448486 19.998" stroke="#558B2F" stroke-width="0.5" stroke-linecap="round"/>
</g>
<defs>
<filter id="filter0_d" x="1" y="5.5" width="25" height="28.5" filterUnits="userSpaceOnUse" color-interpolation-filters="sRGB">
<feFlood flood-opacity="0" result="BackgroundImageFix"/>
<feColorMatrix in="SourceAlpha" type="matrix" values="0 0 0 0 0 0 0 0 0 0 0 0 0 0 0 0 0 0 127 0"/>
<feOffset dy="4"/>
<feGaussianBlur stdDeviation="2"/>
<feColorMatrix type="matrix" values="0 0 0 0 0 0 0 0 0 0 0 0 0 0 0 0 0 0 0.25 0"/>
<feBlend mode="normal" in2="BackgroundImageFix" result="effect1_dropShadow"/>
<feBlend mode="normal" in="SourceGraphic" in2="effect1_dropShadow" result="shape"/>
</filter>
<clipPath id="clip0">
<rect width="35" height="50" fill="white" transform="translate(-11)"/>
</clipPath>
</defs>
</svg>
