<svg width="35" height="50" viewBox="0 0 35 50" fill="none" xmlns="http://www.w3.org/2000/svg">
<g clip-path="url(#clip0)">
<ellipse cx="26" cy="23" rx="5" ry="6" fill="#70BA4D"/>
<ellipse cx="20" cy="23" rx="5" ry="6" fill="#70BA4D"/>
<path d="M1 24.4516C1 20.8885 3.88849 18 7.45161 18H13V28H4.54839C2.58867 28 1 26.4113 1 24.4516Z" fill="#70BA4D"/>
<path d="M13 18H14V28H13V18Z" fill="#1FC7D4"/>
<path d="M26 18H9V28H26V18Z" fill="#70BA4D"/>
<path d="M23 28C21.7948 28.1268 20.4914 26.6833 20.5 23C20.5086 19.3167 21.577 19.4406 23.1343 18" stroke="#558B2F" stroke-width="0.5" stroke-linecap="round"/>
<ellipse cx="14" cy="23" rx="5" ry="6" fill="#70BA4D"/>
<path d="M17 28C15.7948 28.1268 14.9914 26.6833 15 23C15.0086 19.3167 15.4427 19.4406 17 18" stroke="#558B2F" stroke-width="0.5" stroke-linecap="round"/>
<g filter="url(#filter0_d)">
<path d="M17 4.01709C18.3333 3.86606 21 4.65112 21 9" stroke="#452A7A" stroke-linecap="round"/>
<path d="M27.0171 8C26.8661 6.66672 27.6511 4 32 4" stroke="#452A7A" stroke-linecap="round"/>
<circle cx="24.5" cy="15.5" r="8.25" fill="#70BA4D" stroke="#558B2F" stroke-width="0.5"/>
<path d="M26.9932 18C27.0536 18.3333 26.7396 19 25 19" stroke="#452A7A" stroke-linecap="round"/>
<path d="M22.0103 18C21.9196 18.3333 22.3908 19 25 19" stroke="#452A7A" stroke-linecap="round"/>
<path d="M23 12C23 12.7364 22.5523 13 22 13C21.4477 13 21 12.7364 21 12C21 11.2636 21.4477 11 22 11C22.5523 11 23 11.2636 23 12Z" fill="#452A7A"/>
<path d="M28 12C28 12.7364 27.5523 13 27 13C26.4477 13 26 12.7364 26 12C26 11.2636 26.4477 11 27 11C27.5523 11 28 11.2636 28 12Z" fill="#452A7A"/>
</g>
<path d="M15.8003 45.9999V44.3079H11.9363V43.3839L15.9563 38.2719H17.0963V43.2519H17.8883V44.3079H17.0963V45.9999H15.8003ZM13.2083 43.2879H16.0043V39.7599L13.2083 43.2879ZM18.6919 45.9999V45.3519C18.8999 44.8639 19.1879 44.4239 19.5559 44.0319C19.9319 43.6399 20.3319 43.2599 20.7559 42.8919C21.0759 42.6119 21.3399 42.3759 21.5479 42.1839C21.7639 41.9839 21.9319 41.8039 22.0519 41.6439C22.1719 41.4839 22.2559 41.3199 22.3039 41.1519C22.3519 40.9759 22.3759 40.7719 22.3759 40.5399C22.3759 40.1239 22.2559 39.8079 22.0159 39.5919C21.7759 39.3759 21.3759 39.2679 20.8159 39.2679C20.5119 39.2679 20.1999 39.2999 19.8799 39.3639C19.5679 39.4279 19.2679 39.5159 18.9799 39.6279V38.4759C19.2599 38.3799 19.5919 38.3039 19.9759 38.2479C20.3599 38.1839 20.7239 38.1519 21.0679 38.1519C21.9319 38.1519 22.5839 38.3639 23.0239 38.7879C23.4639 39.2119 23.6839 39.7919 23.6839 40.5279C23.6839 40.8959 23.6199 41.2239 23.4919 41.5119C23.3639 41.7919 23.1879 42.0599 22.9639 42.3159C22.7399 42.5639 22.4799 42.8199 22.1839 43.0839C21.8159 43.4039 21.4679 43.7159 21.1399 44.0199C20.8199 44.3159 20.5599 44.6399 20.3599 44.9919H23.7679V45.9999H18.6919ZM26.5014 41.6799C25.9334 41.6799 25.5054 41.5239 25.2174 41.2119C24.9374 40.8919 24.7974 40.4879 24.7974 39.9999C24.7974 39.4319 24.9374 38.9839 25.2174 38.6559C25.5054 38.3199 25.9334 38.1519 26.5014 38.1519C27.0694 38.1519 27.4934 38.3199 27.7734 38.6559C28.0534 38.9839 28.1934 39.4319 28.1934 39.9999C28.1934 40.4879 28.0534 40.8919 27.7734 41.2119C27.4934 41.5239 27.0694 41.6799 26.5014 41.6799ZM25.9734 45.9999L30.0654 38.2719H31.2894L27.1974 45.9999H25.9734ZM26.5014 40.8879C26.8134 40.8879 27.0374 40.8079 27.1734 40.6479C27.3094 40.4879 27.3774 40.2639 27.3774 39.9759C27.3774 39.6239 27.3054 39.3679 27.1614 39.2079C27.0254 39.0399 26.8054 38.9559 26.5014 38.9559C26.1974 38.9559 25.9734 39.0399 25.8294 39.2079C25.6934 39.3679 25.6254 39.6239 25.6254 39.9759C25.6254 40.2639 25.6934 40.4879 25.8294 40.6479C25.9654 40.8079 26.1894 40.8879 26.5014 40.8879ZM30.7974 46.1199C30.2294 46.1199 29.8014 45.9639 29.5134 45.6519C29.2334 45.3319 29.0934 44.9279 29.0934 44.4399C29.0934 43.8719 29.2334 43.4239 29.5134 43.0959C29.8014 42.7599 30.2294 42.5919 30.7974 42.5919C31.3654 42.5919 31.7894 42.7599 32.0694 43.0959C32.3494 43.4239 32.4894 43.8719 32.4894 44.4399C32.4894 44.9279 32.3494 45.3319 32.0694 45.6519C31.7894 45.9639 31.3654 46.1199 30.7974 46.1199ZM30.7974 45.3279C31.1094 45.3279 31.3334 45.2479 31.4694 45.0879C31.6054 44.9279 31.6734 44.7039 31.6734 44.4159C31.6734 44.0639 31.6014 43.8079 31.4574 43.6479C31.3214 43.4799 31.1014 43.3959 30.7974 43.3959C30.4934 43.3959 30.2694 43.4799 30.1254 43.6479C29.9894 43.8079 29.9214 44.0639 29.9214 44.4159C29.9214 44.7039 29.9894 44.9279 30.1254 45.0879C30.2614 45.2479 30.4854 45.3279 30.7974 45.3279Z" fill="#8F80BA"/>
<ellipse cx="9" cy="23" rx="5" ry="6" fill="#70BA4D"/>
<path d="M6.50002 28C5.45215 28.118 4 27 4 23.5C4 20 4.64866 19.8655 6.00005 18.4997" stroke="#558B2F" stroke-width="0.5" stroke-linecap="round"/>
<path d="M11.4485 28C10.2433 28.1268 8.99135 26.6833 9 23C9.00865 19.3167 9.89121 19.4386 11.4485 17.998" stroke="#558B2F" stroke-width="0.5" stroke-linecap="round"/>
</g>
<defs>
<filter id="filter0_d" x="12" y="3.5" width="25" height="28.5" filterUnits="userSpaceOnUse" color-interpolation-filters="sRGB">
<feFlood flood-opacity="0" result="BackgroundImageFix"/>
<feColorMatrix in="SourceAlpha" type="matrix" values="0 0 0 0 0 0 0 0 0 0 0 0 0 0 0 0 0 0 127 0"/>
<feOffset dy="4"/>
<feGaussianBlur stdDeviation="2"/>
<feColorMatrix type="matrix" values="0 0 0 0 0 0 0 0 0 0 0 0 0 0 0 0 0 0 0.25 0"/>
<feBlend mode="normal" in2="BackgroundImageFix" result="effect1_dropShadow"/>
<feBlend mode="normal" in="SourceGraphic" in2="effect1_dropShadow" result="shape"/>
</filter>
<clipPath id="clip0">
<rect width="35" height="50" fill="white"/>
</clipPath>
</defs>
</svg>
